<svg width="35" height="35" viewBox="0 0 35 35" fill="none" xmlns="http://www.w3.org/2000/svg">
<rect width="35" height="35" rx="15" fill="#1877F2"/>
<path d="M20.3515 11.0027L18.7684 11C16.9899 11 15.8406 12.2747 15.8406 14.2476V15.745H14.2489C14.1114 15.745 14 15.8655 14 16.0142V18.1837C14 18.3324 14.1115 18.4528 14.2489 18.4528H15.8406V23.9271C15.8406 24.0758 15.952 24.1962 16.0895 24.1962H18.1662C18.3037 24.1962 18.4151 24.0757 18.4151 23.9271V18.4528H20.2762C20.4137 18.4528 20.5251 18.3324 20.5251 18.1837L20.5258 16.0142C20.5258 15.9428 20.4995 15.8744 20.4529 15.8239C20.4063 15.7734 20.3428 15.745 20.2768 15.745H18.4151V14.4756C18.4151 13.8655 18.5496 13.5558 19.2848 13.5558L20.3512 13.5554C20.4886 13.5554 20.6 13.4349 20.6 13.2863V11.2718C20.6 11.1234 20.4887 11.003 20.3515 11.0027Z" fill="white"/>
</svg>
