<?xml version="1.0" encoding="UTF-8"?>
<!DOCTYPE svg PUBLIC "-//W3C//DTD SVG 1.1//EN" "http://www.w3.org/Graphics/SVG/1.1/DTD/svg11.dtd">
<!-- Creator: CorelDRAW X7 -->
<svg xmlns="http://www.w3.org/2000/svg" xml:space="preserve" width="40.4705mm" height="34.2956mm" version="1.1" style="shape-rendering:geometricPrecision; text-rendering:geometricPrecision; image-rendering:optimizeQuality; fill-rule:evenodd; clip-rule:evenodd"
viewBox="0 0 2365 2004"
 xmlns:xlink="http://www.w3.org/1999/xlink">
 <defs>
  <style type="text/css">
   <![CDATA[
    .fil7 {fill:#D9DADA}
    .fil4 {fill:#727271}
    .fil5 {fill:#727271}
    .fil1 {fill:#005BFF}
    .fil2 {fill:#005BFF}
    .fil3 {fill:#196AFF}
    .fil0 {fill:#196AFF}
    .fil8 {fill:#9BD6FF}
    .fil6 {fill:#B4E6FF}
    .fil9 {fill:#F1F4FB}
    .fil10 {fill:#FFC850}
    .fil11 {fill:white}
   ]]>
  </style>
 </defs>
 <g id="Слой_x0020_1">
  <metadata id="CorelCorpID_0Corel-Layer"/>
  <g id="_2319701716016">
   <path class="fil0" d="M1413 154c-7,-47 -31,-89 -69,-118 -77,-59 -189,-44 -248,34 -42,55 -97,207 -134,318 -37,-111 -92,-263 -134,-318 -59,-78 -171,-93 -249,-34 -37,29 -61,71 -68,118 -6,47 6,93 35,131 66,86 363,252 397,271 6,3 12,5 19,5 7,0 13,-2 19,-5l0 0c34,-19 331,-185 397,-271 29,-38 41,-84 35,-131zm-803 82c-16,-20 -23,-46 -19,-72 3,-25 16,-48 37,-64 18,-13 38,-20 59,-20 29,0 58,13 78,38 35,47 91,202 128,317 -117,-69 -250,-155 -283,-199zm704 0c-33,44 -166,130 -283,199 37,-115 93,-270 128,-317 20,-25 49,-38 78,-38 21,0 41,7 59,20 21,16 34,39 37,64 4,26 -3,52 -19,72z"/>
   <path class="fil1" d="M962 601c-5,0 -10,-1 -15,-3l-501 -200c-20,-8 -30,-32 -22,-52 8,-21 31,-31 52,-23l486 195 486 -195c20,-8 44,2 52,23 8,20 -2,44 -22,52l-501 200c-5,2 -10,3 -15,3z"/>
   <path class="fil0" d="M2205 1202l-481 0 0 562 601 0c22,0 40,-18 40,-40l0 -361c0,-89 -72,-161 -160,-161z"/>
   <path class="fil2" d="M1724 1283l481 0c44,0 80,35 80,80l0 401 -561 0 0 -481z"/>
   <path class="fil0" d="M2282 1764c-20,-136 -137,-241 -278,-241 -141,0 -258,105 -277,241l555 0z"/>
   <path class="fil0" d="M2044 721l-320 0 0 161 420 0c12,0 20,-9 20,-20l0 -20c0,-67 -53,-121 -120,-121z"/>
   <path class="fil1" d="M1683 561l-1442 0c-23,0 -41,18 -41,40l0 802 -80 0c-22,0 -40,18 -40,40 0,22 18,40 40,40l241 0c22,0 40,18 40,40 0,22 -18,40 -40,40l-161 0 0 161c0,22 18,40 40,40l1484 0 0 -1163c0,-22 -18,-40 -41,-40z"/>
   <path class="fil3" d="M824 1563c-41,-25 -90,-40 -143,-40 -52,0 -101,15 -143,40l-498 0c-22,0 -40,18 -40,40 0,22 18,40 40,40l160 0 0 81c0,22 18,40 40,40l1484 0 0 -201 -900 0z"/>
   <circle class="fil4" cx="2004" cy="1804" r="200"/>
   <circle class="fil5" cx="681" cy="1804" r="200"/>
   <polygon class="fil6" points="2205,1202 2124,882 1724,882 1724,1202 "/>
   <circle class="fil7" cx="681" cy="1804" r="120"/>
   <circle class="fil2" cx="681" cy="1804" r="40"/>
   <circle class="fil7" cx="2004" cy="1804" r="120"/>
   <circle class="fil2" cx="2004" cy="1804" r="40"/>
   <path class="fil8" d="M1884 962l260 0 -20 -80 -400 0 0 320 120 0 0 -200c0,-22 18,-40 40,-40z"/>
   <path class="fil2" d="M1724 802l320 0c22,0 40,18 40,40l0 40 -360 0 0 -80z"/>
   <rect class="fil9" x="2245" y="1363" width="120" height="160"/>
   <path class="fil10" d="M2164 1363l0 80c0,44 36,80 81,80l40 0 0 -160 -121 0z"/>
   <path class="fil11" d="M601 842l-160 0c-22,0 -40,18 -40,40l0 320c0,23 18,40 40,40 22,0 40,-17 40,-40l0 -120 80 0c22,0 40,-18 40,-40 0,-22 -18,-40 -40,-40l-80 0 0 -80 120 0c22,0 40,-18 40,-40 0,-22 -18,-40 -40,-40z"/>
   <path class="fil11" d="M962 982c0,-77 -63,-140 -140,-140l-101 0c-22,0 -40,18 -40,40l0 320c0,23 18,40 40,40 23,0 41,-17 41,-40l0 -80 58 0 69 103c7,11 20,18 33,18 8,0 15,-3 22,-7 19,-13 24,-37 11,-56l-55 -82c38,-25 62,-68 62,-116zm-200 -60l60 0c33,0 60,27 60,60 0,33 -27,60 -60,60l-60 0 0 -120z"/>
   <path class="fil11" d="M1202 922c23,0 41,-18 41,-40 0,-22 -18,-40 -41,-40l-160 0c-22,0 -40,18 -40,40l0 320c0,23 18,40 40,40l160 1c23,0 41,-18 41,-41 0,-22 -18,-40 -41,-40l-120 0 0 -80 80 0c23,0 40,-18 40,-40 0,-22 -17,-40 -40,-40l-80 0 0 -80 120 0 0 0z"/>
   <path class="fil11" d="M1483 1162l-120 0 0 -80 40 0c22,0 40,-18 40,-40 0,-22 -18,-40 -40,-40l-40 0 0 -80 120 0c22,0 40,-18 40,-40 0,-22 -18,-40 -40,-40l-160 0c-22,0 -40,18 -40,40l0 320c0,23 18,40 40,40l160 1c22,0 40,-18 40,-41 0,-22 -18,-40 -40,-40z"/>
  </g>
 </g>
</svg>
