<svg width="35" height="35" viewBox="0 0 35 35" fill="none" xmlns="http://www.w3.org/2000/svg">
<rect width="35" height="35" rx="15" fill="url(#paint0_linear)"/>
<path d="M16.9984 15.998C15.8967 15.998 14.9976 16.8968 14.9976 17.9982C14.9976 19.0997 15.8967 19.9985 16.9984 19.9985C18.1001 19.9985 18.9992 19.0997 18.9992 17.9982C18.9992 16.8968 18.1001 15.998 16.9984 15.998ZM22.9993 17.9982C22.9993 17.1699 23.0068 16.3491 22.9603 15.5223C22.9138 14.5619 22.6946 13.7096 21.9922 13.0073C21.2882 12.3036 20.4371 12.086 19.4765 12.0395C18.648 11.9929 17.8269 12.0004 16.9999 12.0004C16.1713 12.0004 15.3503 11.9929 14.5233 12.0395C13.5626 12.086 12.7101 12.3051 12.0076 13.0073C11.3036 13.7111 11.086 14.5619 11.0395 15.5223C10.9929 16.3506 11.0004 17.1714 11.0004 17.9982C11.0004 18.8251 10.9929 19.6474 11.0395 20.4742C11.086 21.4346 11.3051 22.2869 12.0076 22.9892C12.7116 23.6929 13.5626 23.9105 14.5233 23.957C15.3518 24.0035 16.1728 23.996 16.9999 23.996C17.8284 23.996 18.6495 24.0035 19.4765 23.957C20.4371 23.9105 21.2897 23.6914 21.9922 22.9892C22.6961 22.2854 22.9138 21.4346 22.9603 20.4742C23.0083 19.6474 22.9993 18.8266 22.9993 17.9982ZM16.9984 21.0759C15.2948 21.0759 13.9199 19.7014 13.9199 17.9982C13.9199 16.2951 15.2948 14.9206 16.9984 14.9206C18.702 14.9206 20.0769 16.2951 20.0769 17.9982C20.0769 19.7014 18.702 21.0759 16.9984 21.0759ZM20.203 15.5133C19.8052 15.5133 19.484 15.1922 19.484 14.7945C19.484 14.3969 19.8052 14.0757 20.203 14.0757C20.6008 14.0757 20.922 14.3969 20.922 14.7945C20.9221 14.8889 20.9036 14.9825 20.8675 15.0697C20.8314 15.157 20.7784 15.2363 20.7116 15.303C20.6449 15.3698 20.5656 15.4227 20.4783 15.4588C20.391 15.4949 20.2974 15.5134 20.203 15.5133Z" fill="white"/>
<defs>
<linearGradient id="paint0_linear" x1="2.34996" y1="32.7198" x2="34.7798" y2="4.64656" gradientUnits="userSpaceOnUse">
<stop stop-color="#FFDD55"/>
<stop offset="0.5" stop-color="#FF543E"/>
<stop offset="1" stop-color="#C837AB"/>
</linearGradient>
</defs>
</svg>
