<svg width="35" height="35" viewBox="0 0 35 35" fill="none" xmlns="http://www.w3.org/2000/svg">
<rect width="35" height="35" rx="15" fill="#EE8208"/>
<path d="M17.0326 18.2388C15.0551 18.2388 13.4115 16.5966 13.4115 14.6533C13.4115 12.6429 15.0551 11 17.0333 11C19.0787 11 20.6545 12.6422 20.6545 14.6533C20.6509 15.6075 20.2687 16.5212 19.5918 17.1937C18.9149 17.8661 17.9987 18.2423 17.0445 18.2395L17.0326 18.2388ZM17.0326 13.1119C16.1954 13.1119 15.5584 13.8154 15.5584 14.654C15.5584 15.4913 16.1954 16.1283 17.0333 16.1283C17.9048 16.1283 18.5082 15.4913 18.5082 14.654C18.5089 13.8147 17.9048 13.1119 17.0326 13.1119ZM18.4746 21.2222L20.5208 23.1998C20.9233 23.6345 20.9233 24.2715 20.5208 24.674C20.0854 25.1087 19.414 25.1087 19.0787 24.674L17.0333 22.6628L15.0551 24.674C14.8542 24.8749 14.5854 24.975 14.283 24.975C14.0485 24.975 13.7804 24.8742 13.5452 24.674C13.1427 24.2715 13.1427 23.6345 13.5452 23.1991L15.6242 21.2215C14.8734 20.9992 14.1532 20.6843 13.4801 20.2842C12.9768 20.0161 12.8767 19.3462 13.1448 18.8429C13.4801 18.3403 14.0835 18.2066 14.6204 18.5419C15.3474 18.9856 16.1826 19.2203 17.0344 19.2203C17.8861 19.2203 18.7213 18.9856 19.4483 18.5419C19.9853 18.2066 20.6216 18.3403 20.9233 18.8429C21.2257 19.3462 21.0906 20.0154 20.6209 20.2842C19.9846 20.6867 19.2467 20.9884 18.4753 21.2229L18.4746 21.2222Z" fill="white"/>
</svg>
