<svg width="35" height="35" viewBox="0 0 35 35" fill="none" xmlns="http://www.w3.org/2000/svg">
<rect width="35" height="35" rx="15" fill="#7360F2"/>
<path d="M16.7444 10.0022C15.5405 10.0167 12.9522 10.2146 11.5045 11.5427C10.4277 12.6097 10.0517 14.1872 10.0076 16.1379C9.97107 18.0816 9.927 21.7318 13.4454 22.7256V24.2394C13.4454 24.2394 13.4234 24.8451 13.8237 24.9693C14.3169 25.1255 14.5977 24.6595 15.0665 24.1588L15.9409 23.1701C18.3482 23.3702 20.192 22.9089 20.4044 22.8405C20.8929 22.6844 23.6443 22.3328 24.0939 18.6822C24.5552 14.912 23.8693 12.5366 22.6312 11.4621H22.6237C22.2501 11.1179 20.7485 10.0237 17.3937 10.0116C17.3937 10.0116 17.1448 9.99468 16.7444 10.0017V10.0022ZM16.7857 11.0622C17.1274 11.0598 17.3351 11.0743 17.3351 11.0743C20.1747 11.0818 21.53 11.9365 21.8497 12.2243C22.8924 13.1179 23.4296 15.2594 23.0363 18.407C22.6626 21.4589 20.4311 21.6521 20.0181 21.7838C19.8423 21.84 18.2183 22.2404 16.1725 22.1087C16.1725 22.1087 14.6488 23.9473 14.1725 24.4208C14.097 24.5038 14.0089 24.5282 13.9527 24.516C13.872 24.4963 13.8476 24.3965 13.8523 24.2596L13.8669 21.7472C10.8829 20.9221 11.0587 17.8088 11.0906 16.1825C11.1272 14.5562 11.4323 13.2257 12.3409 12.3247C13.564 11.2187 15.7618 11.0697 16.7847 11.0622H16.7857ZM17.0107 12.688C16.9861 12.6877 16.9618 12.6924 16.939 12.7016C16.9162 12.7108 16.8955 12.7244 16.878 12.7417C16.8606 12.7589 16.8467 12.7795 16.8372 12.8021C16.8277 12.8248 16.8228 12.8491 16.8227 12.8736C16.8227 12.9786 16.908 13.0616 17.0107 13.0616C17.4755 13.0528 17.9375 13.1361 18.37 13.3066C18.8025 13.4772 19.1969 13.7317 19.5305 14.0555C20.2117 14.717 20.5436 15.6058 20.5563 16.768C20.5563 16.8707 20.6393 16.956 20.7443 16.956V16.9485C20.7938 16.9486 20.8413 16.9292 20.8765 16.8944C20.9117 16.8596 20.9318 16.8124 20.9323 16.7629C20.955 16.2158 20.8663 15.6699 20.6715 15.1582C20.4767 14.6465 20.1799 14.1798 19.7992 13.7864C19.057 13.0612 18.1166 12.6875 17.0107 12.6875V12.688ZM14.5396 13.1179C14.4069 13.0985 14.2716 13.1251 14.1561 13.1934H14.1463C13.8782 13.3505 13.6368 13.5491 13.4309 13.7817C13.2598 13.9795 13.1669 14.1797 13.1426 14.3724C13.128 14.4873 13.1379 14.6021 13.1721 14.7118L13.1843 14.7193C13.377 15.2856 13.6287 15.8304 13.9362 16.3433C14.3324 17.0638 14.8199 17.7302 15.3867 18.3259L15.4036 18.3502L15.4303 18.3699L15.4472 18.3896L15.4669 18.4065C16.0647 18.975 16.7327 19.4648 17.4546 19.864C18.2798 20.3131 18.7804 20.5255 19.0809 20.6136V20.6183C19.1691 20.6451 19.2492 20.6572 19.3299 20.6572C19.586 20.6385 19.8284 20.5345 20.0186 20.3619C20.2502 20.1559 20.4465 19.9135 20.5999 19.6442V19.6395C20.7438 19.3685 20.695 19.1121 20.4874 18.9386C20.0714 18.575 19.6217 18.2521 19.1442 17.9743C18.8245 17.8008 18.4996 17.9058 18.3679 18.0816L18.0871 18.4356C17.9431 18.6114 17.6816 18.587 17.6816 18.587L17.6741 18.5917C15.7233 18.0933 15.203 16.1182 15.203 16.1182C15.203 16.1182 15.1786 15.8496 15.3591 15.7127L15.7107 15.4296C15.879 15.2927 15.9962 14.9683 15.8157 14.6481C15.5398 14.17 15.2175 13.7201 14.8537 13.3049C14.7742 13.2071 14.6626 13.1405 14.5387 13.1169L14.5396 13.1179ZM17.3351 13.6748C17.0862 13.6748 17.0862 14.0508 17.3374 14.0508C17.647 14.0558 17.9525 14.1218 18.2365 14.245C18.5206 14.3681 18.7776 14.546 18.9928 14.7686C19.1892 14.9851 19.34 15.2389 19.4365 15.5149C19.533 15.7909 19.5731 16.0834 19.5544 16.3752C19.5553 16.4245 19.5755 16.4716 19.6106 16.5063C19.6457 16.541 19.6931 16.5606 19.7424 16.5608L19.7499 16.5706C19.7997 16.5703 19.8473 16.5504 19.8825 16.5152C19.9176 16.48 19.9376 16.4324 19.9379 16.3827C19.9548 15.6377 19.7232 15.0128 19.2689 14.5121C18.8123 14.0114 18.1752 13.7306 17.3618 13.6748H17.3351ZM17.6431 14.6856C17.3867 14.6781 17.3768 15.0616 17.6309 15.0691C18.2488 15.1009 18.5488 15.4132 18.5882 16.0554C18.5891 16.1042 18.609 16.1507 18.6437 16.1849C18.6784 16.2192 18.7251 16.2385 18.7739 16.2387H18.7814C18.8064 16.2377 18.831 16.2316 18.8537 16.2209C18.8765 16.2102 18.8968 16.1951 18.9136 16.1765C18.9304 16.1579 18.9433 16.1361 18.9516 16.1124C18.9599 16.0887 18.9634 16.0636 18.9619 16.0386C18.9178 15.2013 18.4612 14.7296 17.6506 14.686H17.6431V14.6856Z" fill="white"/>
</svg>
