<svg width="35" height="35" viewBox="0 0 35 35" fill="none" xmlns="http://www.w3.org/2000/svg">
<rect width="35" height="35" rx="15" fill="#2787F5"/>
<path d="M22.4515 18.1594C22.2284 17.8445 22.2922 17.7044 22.4515 17.4229C22.4544 17.4197 24.2962 14.5752 24.4859 13.6105L24.4871 13.6099C24.5814 13.2584 24.4871 13 24.0311 13H22.5222C22.1381 13 21.961 13.2217 21.8662 13.4698C21.8662 13.4698 21.0979 15.5251 20.0111 16.8574C19.6604 17.2423 19.4982 17.3657 19.3067 17.3657C19.2124 17.3657 19.0658 17.2423 19.0658 16.8908V13.6099C19.0658 13.1883 18.9583 13 18.6403 13H16.2678C16.0268 13 15.8836 13.1967 15.8836 13.3798C15.8836 13.7796 16.427 13.8715 16.4834 14.9962V17.4364C16.4834 17.9711 16.3966 18.0695 16.2039 18.0695C15.691 18.0695 14.4461 16.0058 13.7083 13.644C13.5594 13.1857 13.4139 13.0006 13.0269 13.0006H11.5175C11.0868 13.0006 11 13.2224 11 13.4704C11 13.9087 11.5129 16.0881 13.3852 18.9673C14.633 20.9326 16.3902 21.9975 17.9888 21.9975C18.9497 21.9975 19.067 21.761 19.067 21.3542C19.067 19.4763 18.9801 19.2989 19.4614 19.2989C19.6845 19.2989 20.0686 19.4223 20.9657 20.3702C21.9909 21.4943 22.1594 21.9975 22.7333 21.9975H24.2421C24.6722 21.9975 24.8902 21.761 24.7648 21.2944C24.4779 20.313 22.5389 18.2944 22.4515 18.1594Z" fill="white"/>
</svg>
