<svg width="35" height="35" viewBox="0 0 35 35" fill="none" xmlns="http://www.w3.org/2000/svg">
<rect width="35" height="35" rx="15" fill="#44EA62"/>
<path fill-rule="evenodd" clip-rule="evenodd" d="M22.7536 12.1801C22.065 11.487 21.2457 10.9374 20.3432 10.5632C19.4407 10.189 18.4729 9.99754 17.4958 10C13.3989 10 10.0638 13.3344 10.0621 17.4329C10.0621 18.7428 10.4041 20.0213 11.054 21.149L10 25L13.9404 23.9658C15.0304 24.5592 16.2515 24.8703 17.4925 24.8708H17.4958C21.5919 24.8708 24.9271 21.5365 24.9288 17.4379C24.9316 16.4613 24.7408 15.4938 24.3675 14.5913C23.9941 13.6889 23.4456 12.8693 22.7536 12.1801ZM17.4958 23.6164H17.4934C16.3868 23.6165 15.3005 23.3188 14.3486 22.7545L14.1234 22.6203L11.7852 23.2339L12.4086 20.9544L12.2621 20.7209C11.6434 19.736 11.3159 18.5961 11.3173 17.4329C11.319 14.0266 14.0903 11.2553 17.4983 11.2553C18.31 11.2535 19.1139 11.4127 19.8636 11.7236C20.6133 12.0346 21.2939 12.4912 21.866 13.0669C22.4412 13.6399 22.897 14.3212 23.2073 15.0715C23.5175 15.8217 23.676 16.626 23.6735 17.4379C23.6719 20.8443 20.9006 23.6164 17.4958 23.6164ZM20.8848 18.9887C20.6985 18.8952 19.7861 18.4464 19.6155 18.3843C19.4458 18.3222 19.3224 18.2916 19.1982 18.477C19.074 18.6625 18.718 19.0807 18.6095 19.2049C18.501 19.3291 18.3926 19.344 18.2071 19.2512C18.0216 19.1585 17.423 18.9623 16.7134 18.3297C16.1611 17.837 15.7885 17.2293 15.6801 17.043C15.5716 16.8567 15.6685 16.7565 15.762 16.6637C15.8457 16.5809 15.9475 16.4468 16.0402 16.3383C16.133 16.2299 16.1636 16.1529 16.2257 16.0287C16.2878 15.9045 16.2572 15.796 16.21 15.7033C16.1636 15.6097 15.7918 14.6956 15.637 14.3238C15.4871 13.9636 15.334 14.0117 15.2197 14.0067C15.1013 14.0019 14.9829 13.9996 14.8645 14.0001C14.7703 14.0025 14.6776 14.0243 14.5923 14.0642C14.5069 14.1041 14.4308 14.1612 14.3685 14.2319C14.1979 14.4182 13.7185 14.867 13.7185 15.7811C13.7185 16.6952 14.3842 17.5787 14.477 17.7029C14.5697 17.8271 15.7869 19.7025 17.6499 20.5073C18.0937 20.6986 18.4398 20.8128 18.7089 20.8989C19.1535 21.0405 19.5584 21.0198 19.8788 20.9726C20.2357 20.9196 20.9776 20.5239 21.1324 20.09C21.2872 19.6561 21.2872 19.2843 21.2409 19.2065C21.1945 19.1287 21.0695 19.0815 20.8848 18.9887Z" fill="white"/>
</svg>
