<svg width="35" height="35" viewBox="0 0 35 35" fill="none" xmlns="http://www.w3.org/2000/svg">
<rect width="35" height="35" rx="15" fill="#FF0000"/>
<path d="M25.7916 13.8867C25.694 13.5248 25.5034 13.1947 25.2387 12.9294C24.9739 12.664 24.6443 12.4726 24.2826 12.3743C22.9415 12.006 17.5761 12 17.5761 12C17.5761 12 12.2115 11.994 10.8695 12.346C10.5081 12.4489 10.1791 12.643 9.91427 12.9096C9.64942 13.1763 9.45757 13.5065 9.35712 13.8687C9.00343 15.2098 9 17.9914 9 17.9914C9 17.9914 8.99658 20.7868 9.3477 22.1142C9.54468 22.8481 10.1228 23.4279 10.8576 23.6257C12.2124 23.994 17.5632 24 17.5632 24C17.5632 24 22.9286 24.006 24.2698 23.6549C24.6316 23.5567 24.9615 23.3657 25.2269 23.1009C25.4923 22.8361 25.684 22.5066 25.783 22.145C26.1376 20.8047 26.1402 18.024 26.1402 18.024C26.1402 18.024 26.1573 15.2278 25.7916 13.8867ZM15.8598 20.5684L15.8641 15.4299L20.3234 18.0034L15.8598 20.5684Z" fill="white"/>
</svg>
